<svg width="99" height="44" viewBox="0 0 99 44" fill="none" xmlns="http://www.w3.org/2000/svg">
<path d="M26.6744 31.3087L29.372 16.0367H35.4239L35.0767 18.0415C34.9159 18.3255 33.9135 19.6375 33.2568 21.1975H33.5664C35.4224 17.4479 38.3184 15.3439 41.8215 15.3439C45.9919 15.3439 47.8358 18.1782 46.883 23.6111L45.5215 31.3087H39.4695L40.7815 23.8711C41.3135 20.9014 40.5095 19.6135 38.4296 19.6135C36.0912 19.6135 34.4936 21.223 34.0112 23.9823L32.7248 31.3087H26.6729H26.6744Z" fill="#C91006"/>
<path d="M48.2449 23.7087C49.1602 18.5359 52.8857 15.3423 57.1432 15.3423C60.3368 15.3423 62.7503 17.1743 63.368 21.2576H63.6896C63.5904 19.7111 63.0464 18.4112 62.9848 18.1392L64.0608 12H70.1248L66.7208 31.3072H60.6569L61.2009 28.2008C59.7657 30.4911 57.4138 32 54.3314 32C49.9386 32 47.3387 28.856 48.2419 23.7072L48.2449 23.7087ZM57.5761 27.768C59.4456 27.768 61.5 26.6047 62.0064 23.7087C62.5264 20.8007 60.8808 19.6375 58.9993 19.6375C56.8216 19.6375 55.0272 21.1344 54.5809 23.7087C54.1225 26.2576 55.3984 27.768 57.5761 27.768Z" fill="#C91006"/>
<path d="M69.3075 23.6351C70.2228 18.4863 74.2579 15.2687 80.8298 15.2687C87.4017 15.2687 90.3097 18.4863 89.4065 23.6351C88.5033 28.7087 84.4682 31.9278 77.8963 31.9278C71.3244 31.9278 68.4164 28.7102 69.3075 23.6351ZM78.6522 27.6567C80.6194 27.6567 82.8481 26.4935 83.3546 23.6095C83.8626 20.7135 82.0426 19.5383 80.0754 19.5383C78.1082 19.5383 75.8795 20.7135 75.373 23.6095C74.853 26.4935 76.673 27.6567 78.6522 27.6567Z" fill="#C91006"/>
<path d="M26.6744 31.3087L29.372 16.0367H35.4239L35.0767 18.0415C34.9159 18.3255 33.9135 19.6375 33.2568 21.1975H33.5664C35.4224 17.4479 38.3184 15.3439 41.8215 15.3439C45.9919 15.3439 47.8358 18.1782 46.883 23.6111L45.5215 31.3087H39.4695L40.7815 23.8711C41.3135 20.9014 40.5095 19.6135 38.4296 19.6135C36.0912 19.6135 34.4936 21.223 34.0112 23.9823L32.7248 31.3087H26.6729H26.6744Z" fill="#C91006"/>
<path d="M48.2449 23.7087C49.1602 18.5359 52.8857 15.3423 57.1432 15.3423C60.3368 15.3423 62.7503 17.1743 63.368 21.2576H63.6896C63.5904 19.7111 63.0464 18.4112 62.9848 18.1392L64.0608 12H70.1248L66.7208 31.3072H60.6569L61.2009 28.2008C59.7657 30.4911 57.4138 32 54.3314 32C49.9386 32 47.3387 28.856 48.2419 23.7072L48.2449 23.7087ZM57.5761 27.768C59.4456 27.768 61.5 26.6047 62.0064 23.7087C62.5264 20.8007 60.8808 19.6375 58.9993 19.6375C56.8216 19.6375 55.0272 21.1344 54.5809 23.7087C54.1225 26.2576 55.3984 27.768 57.5761 27.768Z" fill="#C91006"/>
<path d="M69.3075 23.6351C70.2228 18.4863 74.2579 15.2687 80.8298 15.2687C87.4017 15.2687 90.3097 18.4863 89.4065 23.6351C88.5033 28.7087 84.4682 31.9278 77.8963 31.9278C71.3244 31.9278 68.4164 28.7102 69.3075 23.6351ZM78.6522 27.6567C80.6194 27.6567 82.8481 26.4935 83.3546 23.6095C83.8626 20.7135 82.0426 19.5383 80.0754 19.5383C78.1082 19.5383 75.8795 20.7135 75.373 23.6095C74.853 26.4935 76.673 27.6567 78.6522 27.6567Z" fill="#C91006"/>
<path d="M26.6744 31.3087L29.372 16.0367H35.4239L35.0767 18.0415C34.9159 18.3255 33.9135 19.6375 33.2568 21.1975H33.5664C35.4224 17.4479 38.3184 15.3439 41.8215 15.3439C45.9919 15.3439 47.8358 18.1782 46.883 23.6111L45.5215 31.3087H39.4695L40.7815 23.8711C41.3135 20.9014 40.5095 19.6135 38.4296 19.6135C36.0912 19.6135 34.4936 21.223 34.0112 23.9823L32.7248 31.3087H26.6729H26.6744Z" fill="#C91006"/>
<path d="M48.2449 23.7087C49.1602 18.5359 52.8857 15.3423 57.1432 15.3423C60.3368 15.3423 62.7503 17.1743 63.368 21.2576H63.6896C63.5904 19.7111 63.0464 18.4112 62.9848 18.1392L64.0608 12H70.1248L66.7208 31.3072H60.6569L61.2009 28.2008C59.7657 30.4911 57.4138 32 54.3314 32C49.9386 32 47.3387 28.856 48.2419 23.7072L48.2449 23.7087ZM57.5761 27.768C59.4456 27.768 61.5 26.6047 62.0064 23.7087C62.5264 20.8007 60.8808 19.6375 58.9993 19.6375C56.8216 19.6375 55.0272 21.1344 54.5809 23.7087C54.1225 26.2576 55.3984 27.768 57.5761 27.768Z" fill="#C91006"/>
<path d="M69.3075 23.6351C70.2228 18.4863 74.2579 15.2687 80.8298 15.2687C87.4017 15.2687 90.3097 18.4863 89.4065 23.6351C88.5033 28.7087 84.4682 31.9278 77.8963 31.9278C71.3244 31.9278 68.4164 28.7102 69.3075 23.6351ZM78.6522 27.6567C80.6194 27.6567 82.8481 26.4935 83.3546 23.6095C83.8626 20.7135 82.0426 19.5383 80.0754 19.5383C78.1082 19.5383 75.8795 20.7135 75.373 23.6095C74.853 26.4935 76.673 27.6567 78.6522 27.6567Z" fill="#C91006"/>
<path d="M90.3322 17.389C90.3322 16.5835 90.8867 15.9913 91.6427 15.9913C92.3986 15.9913 92.9606 16.582 92.9606 17.389C92.9606 18.196 92.4136 18.7942 91.6427 18.7942C90.8717 18.7942 90.3322 18.2035 90.3322 17.389ZM91.6427 18.5402C92.2558 18.5402 92.6841 18.1104 92.6841 17.389C92.6841 16.6676 92.2573 16.2453 91.6427 16.2453C91.028 16.2453 90.6012 16.6751 90.6012 17.389C90.6012 18.1029 91.043 18.5402 91.6427 18.5402ZM91.1557 16.5594H91.6577C91.9868 16.5594 92.2198 16.7593 92.2198 17.0584C92.2198 17.2583 92.1221 17.4115 91.9583 17.4957L92.2573 18.172H91.8681L91.6216 17.5648H91.5014V18.172H91.1572V16.5594H91.1557ZM91.6276 17.2898C91.7779 17.2898 91.8666 17.2057 91.8666 17.0749C91.8666 16.9366 91.7764 16.86 91.6276 16.86H91.4999V17.2898H91.6276Z" fill="#C91006"/>
<path d="M90.3322 17.389C90.3322 16.5835 90.8867 15.9913 91.6427 15.9913C92.3986 15.9913 92.9606 16.582 92.9606 17.389C92.9606 18.196 92.4136 18.7942 91.6427 18.7942C90.8717 18.7942 90.3322 18.2035 90.3322 17.389ZM91.6427 18.5402C92.2558 18.5402 92.6841 18.1104 92.6841 17.389C92.6841 16.6676 92.2573 16.2453 91.6427 16.2453C91.028 16.2453 90.6012 16.6751 90.6012 17.389C90.6012 18.1029 91.043 18.5402 91.6427 18.5402ZM91.1557 16.5594H91.6577C91.9868 16.5594 92.2198 16.7593 92.2198 17.0584C92.2198 17.2583 92.1221 17.4115 91.9583 17.4957L92.2573 18.172H91.8681L91.6216 17.5648H91.5014V18.172H91.1572V16.5594H91.1557ZM91.6276 17.2898C91.7779 17.2898 91.8666 17.2057 91.8666 17.0749C91.8666 16.9366 91.7764 16.86 91.6276 16.86H91.4999V17.2898H91.6276Z" fill="#C91006"/>
<path d="M18.6384 31.2847H24.7008L27.3909 16.0382H21.3269L20.9557 18.1422C21.0174 18.4142 21.5614 19.7142 21.6606 21.2607H21.351C20.7318 17.1654 18.3198 15.3334 15.1262 15.3334C10.8702 15.3334 7.13262 18.539 6.21739 23.6983C5.31418 28.8576 7.92462 31.9895 12.3054 31.9895C15.3862 31.9895 17.7622 30.4792 19.1854 28.1903L18.6384 31.2862V31.2847ZM15.5605 27.7575C13.3709 27.7575 12.095 26.2607 12.5534 23.6983C12.9982 21.1239 14.8046 19.627 16.9837 19.627C18.8518 19.627 20.5109 20.8023 19.9909 23.6983C19.483 26.5943 17.4166 27.7575 15.5605 27.7575Z" fill="#C91006"/>
</svg>
